<svg xmlns="http://www.w3.org/2000/svg" viewBox="0 0 131.24 70.9"><g id="exhibit"><path class="a" d="M372.39,281.22h121.1V220.44H372.39v60.78ZM496,286.28H369.86a2.54,2.54,0,0,1-2.54-2.53V217.91a2.54,2.54,0,0,1,2.54-2.53H496a2.53,2.53,0,0,1,2.53,2.53v65.84a2.53,2.53,0,0,1-2.53,2.53Z" transform="translate(-367.32 -215.38)"/><path class="a" d="M430.34,253.36a7.76,7.76,0,0,1-7.75-7.75,7.68,7.68,0,0,1,7.75-7.59,2.53,2.53,0,1,1,0,5.06,2.62,2.62,0,0,0-2.69,2.53,2.66,2.66,0,0,0,2.69,2.69,2.53,2.53,0,1,1,0,5.06Z" transform="translate(-367.32 -215.38)"/><path class="a" d="M435.55,263.64a2.53,2.53,0,0,1,0-5.06,2.51,2.51,0,0,0,2.53-2.54,2.61,2.61,0,0,0-2.53-2.68,2.53,2.53,0,0,1,0-5.06,7.68,7.68,0,0,1,7.6,7.74,7.52,7.52,0,0,1-7.6,7.6Z" transform="translate(-367.32 -215.38)"/><path class="a" d="M435.55,253.36h-5.21a2.53,2.53,0,1,1,0-5.06h5.21a2.53,2.53,0,0,1,0,5.06Z" transform="translate(-367.32 -215.38)"/><path class="a" d="M435.55,263.64H425.12a2.53,2.53,0,0,1,0-5.06h10.43a2.53,2.53,0,0,1,0,5.06Z" transform="translate(-367.32 -215.38)"/><path class="a" d="M440.61,243.08H430.34a2.53,2.53,0,1,1,0-5.06h10.27a2.53,2.53,0,1,1,0,5.06Z" transform="translate(-367.32 -215.38)"/><path class="a" d="M432.87,243.08a2.53,2.53,0,0,1-2.53-2.53v-4.32a2.53,2.53,0,1,1,5.06,0v4.32a2.53,2.53,0,0,1-2.53,2.53Z" transform="translate(-367.32 -215.38)"/><path class="a" d="M432.87,268a2.52,2.52,0,0,1-2.53-2.53v-4.31a2.53,2.53,0,1,1,5.06,0v4.31a2.52,2.52,0,0,1-2.53,2.53Z" transform="translate(-367.32 -215.38)"/><path class="a" d="M432.87,228.18a22.72,22.72,0,1,0,22.79,22.65,22.67,22.67,0,0,0-22.79-22.65Zm0,50.5a27.78,27.78,0,1,1,27.85-27.85,27.81,27.81,0,0,1-27.85,27.85Z" transform="translate(-367.32 -215.38)"/><path class="a" d="M396.22,253.36H381.33a2.53,2.53,0,1,1,0-5.06h14.89a2.53,2.53,0,1,1,0,5.06Z" transform="translate(-367.32 -215.38)"/><path class="a" d="M484.56,253.36h-14.9a2.53,2.53,0,0,1,0-5.06h14.9a2.53,2.53,0,0,1,0,5.06Z" transform="translate(-367.32 -215.38)"/><path class="a" d="M369.86,238.61a2.53,2.53,0,1,1,0-5.06,15.66,15.66,0,0,0,15.64-15.64,2.53,2.53,0,0,1,5.06,0,20.72,20.72,0,0,1-20.7,20.7Z" transform="translate(-367.32 -215.38)"/><path class="a" d="M496,238.61a20.48,20.48,0,0,1-20.71-20.7,2.54,2.54,0,0,1,5.07,0A15.47,15.47,0,0,0,496,233.55a2.53,2.53,0,1,1,0,5.06Z" transform="translate(-367.32 -215.38)"/><path class="a" d="M388,286.28a2.53,2.53,0,0,1-2.53-2.53,15.66,15.66,0,0,0-15.64-15.65,2.53,2.53,0,1,1,0-5.06,20.73,20.73,0,0,1,20.7,20.71,2.53,2.53,0,0,1-2.53,2.53Z" transform="translate(-367.32 -215.38)"/><path class="a" d="M477.85,286.28a2.53,2.53,0,0,1-2.53-2.53A20.73,20.73,0,0,1,496,263a2.53,2.53,0,1,1,0,5.06,15.66,15.66,0,0,0-15.64,15.65,2.54,2.54,0,0,1-2.54,2.53Z" transform="translate(-367.32 -215.38)"/></g></svg>